Coordinates
version=1
nRows=38
nColumns=12
inDegrees=yes

Units are S.I. units (second, meters, Newtons, ...)
Angles are in degrees

endheader
time	SC_y	SC_z	SC_x	AC_y	AC_z	AC_x	GH_y	GH_z	GH_yy	EL_x	PS_y
       0.0               -40.6          35.36          52.71          42.45         -12.51         -16.01         -160.0          5.605         -105.9          82.03          37.53
    0.0143               -40.6          35.36          52.71          42.45         -12.51         -16.01         -160.0          5.602         -105.9          82.03          37.54
   0.02861               -40.6          35.36          52.71          42.46         -12.51         -16.01         -159.9            5.6         -105.9          82.03          37.55
   0.04291               -40.6          35.36          52.71          42.46         -12.51         -16.01         -159.9          5.597         -105.9          82.04          37.56
   0.05722               -40.6          35.35          52.71          42.46         -12.51         -16.01         -159.9          5.594         -105.9          82.04          37.57
   0.07152               -40.6          35.35          52.71          42.47         -12.51          -16.0         -159.9          5.591         -105.9          82.05          37.58
   0.08583               -40.6          35.35          52.71          42.47          -12.5          -16.0         -159.9          5.588         -105.9          82.05          37.59
    0.1001              -40.59          35.35          52.71          42.47          -12.5          -16.0         -159.8          5.585         -105.9          82.06           37.6
    0.1144              -40.59          35.35          52.71          42.48          -12.5         -15.99         -159.8          5.581         -105.9          82.06          37.62
    0.1287              -40.59          35.35          52.71          42.48          -12.5         -15.99         -159.8          5.577         -106.0          82.07          37.63
     0.143              -40.59          35.35          52.71          42.49          -12.5         -15.99         -159.8          5.573         -106.0          82.07          37.65
    0.1573              -40.59          35.35          52.71          42.49          -12.5         -15.98         -159.7          5.568         -106.0          82.08          37.66
    0.1717              -40.59          35.35          52.71           42.5          -12.5         -15.98         -159.7          5.563         -106.0          82.09          37.68
     0.186              -40.59          35.35          52.71          42.51          -12.5         -15.97         -159.7          5.558         -106.0          82.09           37.7
    0.2003              -40.59          35.35          52.71          42.51          -12.5         -15.97         -159.6          5.552         -106.0           82.1          37.72
    0.2146              -40.59          35.35           52.7          42.52          -12.5         -15.96         -159.6          5.546         -106.0          82.11          37.75
    0.2289              -40.58          35.35           52.7          42.53          -12.5         -15.96         -159.5          5.539         -106.1          82.12          37.77
    0.2432              -40.58          35.34           52.7          42.54          -12.5         -15.95         -159.5          5.531         -106.1          82.13           37.8
    0.2575              -40.58          35.34           52.7          42.55          -12.5         -15.95         -159.4          5.523         -106.1          82.14          37.83
    0.2718              -40.58          35.34           52.7          42.56          -12.5         -15.94         -159.4          5.514         -106.1          82.16          37.86
    0.2861              -40.58          35.34           52.7          42.57          -12.5         -15.93         -159.3          5.505         -106.1          82.17           37.9
    0.3004              -40.57          35.34           52.7          42.58         -12.49         -15.92         -159.2          5.494         -106.2          82.18          37.94
    0.3147              -40.57          35.34           52.7           42.6         -12.49         -15.91         -159.1          5.482         -106.2           82.2          37.98
     0.329              -40.57          35.33           52.7          42.61         -12.49          -15.9         -159.0          5.469         -106.2          82.22          38.03
    0.3433              -40.57          35.33          52.69          42.63         -12.49         -15.89         -158.9          5.454         -106.3          82.24          38.08
    0.3576              -40.56          35.33          52.69          42.65         -12.49         -15.87         -158.8          5.438         -106.3          82.26          38.14
    0.3719              -40.56          35.33          52.69          42.67         -12.49         -15.86         -158.7           5.42         -106.4          82.29          38.21
    0.3862              -40.55          35.32          52.69           42.7         -12.48         -15.84         -158.6          5.399         -106.4          82.32          38.28
    0.4005              -40.55          35.32          52.68          42.72         -12.48         -15.82         -158.4          5.376         -106.5          82.35          38.37
    0.4148              -40.54          35.32          52.68          42.75         -12.48          -15.8         -158.2           5.35         -106.5          82.39          38.47
    0.4291              -40.53          35.31          52.68          42.79         -12.47         -15.77         -158.0          5.319         -106.6          82.43          38.58
    0.4434              -40.53           35.3          52.67          42.83         -12.47         -15.74         -157.8          5.285         -106.7          82.48           38.7
    0.4577              -40.52           35.3          52.67          42.88         -12.47         -15.71         -157.5          5.245         -106.8          82.54          38.85
     0.472              -40.51          35.29          52.66          42.94         -12.46         -15.67         -157.2          5.199         -106.9           82.6          39.02
    0.4863               -40.5          35.28          52.66           43.0         -12.45         -15.62         -156.8          5.144         -107.1          82.68          39.22
    0.5007              -40.48          35.27          52.65          43.08         -12.45         -15.57         -156.4           5.08         -107.2          82.77          39.45
     0.515              -40.46          35.26          52.64          43.17         -12.44          -15.5         -155.8          5.004         -107.4          82.88          39.73
    0.5293              -40.44          35.25          52.63          43.28         -12.43         -15.43         -155.2          4.913         -107.7          83.01          40.07
